<?xml version="1.0" encoding="UTF-8" standalone="no"?>
<!DOCTYPE svg PUBLIC "-//W3C//DTD SVG 1.1//EN" "http://www.w3.org/Graphics/SVG/1.1/DTD/svg11.dtd">
<svg xmlns="http://www.w3.org/2000/svg" version="1.1" viewBox="0.00 0.00 300.00 54.00">
<g stroke-width="2.00" fill="none" stroke-linecap="butt">
<path stroke="#234f87" vector-effect="non-scaling-stroke" d="
  M 27.94 54.00
  Q 27.93 53.55 28.34 53.49
  Q 28.73 53.44 28.91 53.10
  Q 29.46 52.03 28.68 51.42
  Q 28.31 51.13 28.26 50.67
  L 28.15 49.71"
/>
<path stroke="#234f87" vector-effect="non-scaling-stroke" d="
  M 36.93 17.92
  Q 35.35 20.46 35.24 19.25"
/>
<path stroke="#254a84" vector-effect="non-scaling-stroke" d="
  M 13.44 15.80
  Q 16.88 16.59 15.25 17.35"
/>
</g>
<path fill="#1a668f" d="
  M 46.95 0.00
  L 48.02 0.00
  L 43.26 15.07
  Q 43.05 15.75 43.76 15.75
  L 50.02 15.75
  A 0.72 0.72 0.0 0 1 50.74 16.47
  Q 50.77 33.63 50.72 50.94
  Q 50.72 53.32 47.93 54.00
  L 27.94 54.00
  Q 27.93 53.55 28.34 53.49
  Q 28.73 53.44 28.91 53.10
  Q 29.46 52.03 28.68 51.42
  Q 28.31 51.13 28.26 50.67
  L 28.15 49.71
  L 43.45 2.22
  A 0.56 0.55 38.5 0 1 44.45 2.11
  Q 44.62 2.41 44.43 2.98
  Q 37.39 24.54 30.43 46.13
  C 30.20 46.83 29.63 47.53 29.28 48.22
  Q 28.98 48.81 29.63 48.97
  C 30.30 49.14 30.97 48.67 31.19 48.01
  Q 39.06 23.91 46.95 0.00
  Z"
/>
<path fill="#1a668f" d="
  M 36.93 17.92
  Q 35.35 20.46 35.24 19.25
  L 40.02 4.31
  A 0.77 0.76 -72.8 0 1 40.96 3.81
  Q 41.28 3.91 41.11 4.46
  Q 39.06 11.28 36.93 17.92
  Z"
/>
<path fill="#2b387e" d="
  M 13.44 15.80
  Q 16.88 16.59 15.25 17.35
  Q 19.90 31.90 25.06 46.27
  Q 25.33 47.01 24.62 47.62
  Q 24.25 47.93 24.10 47.48
  L 14.51 18.90
  A 0.73 0.72 -28.8 0 0 13.36 18.57
  L 12.99 18.87
  A 0.57 0.57 0.0 0 0 12.93 19.69
  Q 13.55 20.39 13.82 21.19
  Q 18.75 35.84 23.74 50.47
  Q 23.93 51.02 23.35 51.00
  Q 22.86 50.99 22.66 50.40
  Q 17.65 35.45 12.68 20.99
  A 1.59 1.59 0.0 0 0 9.84 20.64
  C 8.36 22.95 8.06 31.18 7.56 34.30
  Q 7.53 34.52 7.60 34.69
  Q 7.72 34.93 7.83 35.02
  A 0.68 0.67 21.8 0 0 8.89 34.57
  Q 9.69 28.47 10.55 22.14
  Q 10.61 21.71 10.80 21.58
  Q 10.93 21.49 11.11 21.49
  Q 11.61 21.47 11.54 21.97
  L 9.99 33.47
  Q 9.93 33.94 10.39 34.01
  Q 10.83 34.08 11.11 33.83
  Q 11.32 33.64 11.38 33.22
  Q 11.96 29.59 12.23 25.53
  A 0.30 0.30 0.0 0 1 12.82 25.49
  Q 13.43 28.77 12.43 31.98
  A 0.93 0.66 80.3 0 0 13.56 33.10
  Q 14.17 32.24 13.99 31.27
  Q 13.93 30.93 14.18 30.69
  Q 14.30 30.58 14.38 30.47
  Q 14.46 30.36 14.51 30.49
  L 21.52 51.45
  A 1.79 1.79 0.0 0 0 24.92 51.43
  L 35.24 19.25
  Q 35.35 20.46 36.93 17.92
  L 26.42 50.37
  Q 26.24 50.93 26.83 50.93
  Q 27.55 50.93 28.15 49.71
  L 28.26 50.67
  Q 28.31 51.13 28.68 51.42
  Q 29.46 52.03 28.91 53.10
  Q 28.73 53.44 28.34 53.49
  Q 27.93 53.55 27.94 54.00
  L 0.00 54.00
  L 0.00 18.48
  C 1.25 14.39 8.61 15.72 13.44 15.80
  Z"
/>
<path fill="#1e5b8a" d="
  M 13.44 15.80
  L 34.27 15.82
  Q 34.95 15.82 34.74 16.48
  L 26.01 43.72
  A 0.35 0.35 0.0 0 1 25.34 43.72
  Q 21.18 30.72 16.64 17.66
  Q 16.43 17.05 15.25 17.35
  Q 16.88 16.59 13.44 15.80
  Z"
/>
<path fill="#2e307b" d="
  M 145.87 34.41
  C 148.70 35.73 154.66 38.96 155.61 41.92
  C 159.20 53.05 147.50 55.07 139.88 52.58
  Q 139.30 52.39 139.25 51.77
  L 138.77 45.99
  A 0.49 0.48 -75.8 0 1 139.51 45.54
  C 141.97 47.14 147.70 49.39 149.45 46.79
  Q 150.73 44.90 148.90 43.53
  C 145.85 41.25 141.14 39.09 139.52 36.19
  C 137.54 32.66 138.59 28.19 142.41 26.14
  C 145.74 24.34 150.37 24.99 153.80 26.20
  Q 154.25 26.36 154.25 26.84
  L 154.25 31.99
  Q 154.25 32.72 153.59 32.41
  C 151.10 31.21 146.20 28.07 144.86 32.06
  A 1.93 1.92 21.8 0 0 145.87 34.41
  Z"
/>
<path fill="#2e307b" d="
  M 176.7109 53.7486
  A 14.39 13.75 89.2 0 1 162.7613 39.5520
  A 14.39 13.75 89.2 0 1 176.3091 24.9714
  A 14.39 13.75 89.2 0 1 190.2587 39.1680
  A 14.39 13.75 89.2 0 1 176.7109 53.7486
  Z
  M 176.3214 47.4676
  A 8.13 7.14 91.4 0 0 183.6579 39.5144
  A 8.13 7.14 91.4 0 0 176.7186 31.2124
  A 8.13 7.14 91.4 0 0 169.3821 39.1656
  A 8.13 7.14 91.4 0 0 176.3214 47.4676
  Z"
/>
<path fill="#09949f" d="
  M 260.91 54.00
  L 260.46 54.00
  C 236.65 51.41 247.07 15.56 268.88 27.35
  Q 269.24 27.54 269.20 27.95
  L 268.62 34.28
  Q 268.57 34.87 268.17 34.44
  C 259.07 24.77 248.41 37.83 255.26 45.12
  C 258.97 49.07 264.86 47.98 268.69 44.71
  Q 269.36 44.14 269.30 45.02
  L 268.94 51.05
  Q 268.91 51.62 268.37 51.78
  L 260.91 54.00
  Z"
/>
<path fill="#2e307b" d="
  M 69.29 40.21
  L 75.42 25.93
  A 0.30 0.30 0.0 0 1 75.70 25.75
  L 81.52 25.75
  A 0.30 0.30 0.0 0 1 81.79 26.18
  L 69.15 53.67
  A 0.30 0.30 0.0 0 1 68.61 53.67
  L 55.94 26.17
  A 0.30 0.30 0.0 0 1 56.21 25.74
  L 62.54 25.76
  A 0.30 0.30 0.0 0 1 62.82 25.94
  L 68.74 40.20
  A 0.30 0.30 0.0 0 0 69.29 40.21
  Z"
/>
<path fill="#2e307b" d="
  M 93.87 36.31
  L 102.17 36.22
  A 0.33 0.33 0.0 0 1 102.50 36.55
  L 102.50 41.67
  A 0.33 0.33 0.0 0 1 102.17 42.00
  L 93.84 42.00
  A 0.33 0.33 0.0 0 0 93.51 42.33
  L 93.49 46.97
  A 0.33 0.33 0.0 0 0 93.82 47.30
  L 103.92 47.23
  A 0.33 0.33 0.0 0 1 104.25 47.56
  L 104.25 52.67
  A 0.33 0.33 0.0 0 1 103.92 53.00
  L 87.58 53.00
  A 0.33 0.33 0.0 0 1 87.25 52.67
  L 87.25 26.08
  A 0.33 0.33 0.0 0 1 87.58 25.75
  L 103.67 25.75
  A 0.33 0.33 0.0 0 1 104.00 26.08
  L 104.00 31.18
  A 0.33 0.33 0.0 0 1 103.67 31.51
  L 93.74 31.48
  A 0.33 0.33 0.0 0 0 93.41 31.82
  L 93.54 35.99
  A 0.33 0.33 0.0 0 0 93.87 36.31
  Z"
/>
<path fill="#2e307b" d="
  M 118.75 42.27
  L 118.75 52.38
  Q 118.75 53.00 118.12 53.00
  L 113.00 53.00
  Q 112.25 53.00 112.25 52.25
  L 112.25 26.29
  Q 112.25 25.88 112.66 25.85
  C 118.58 25.46 130.07 25.00 130.80 33.04
  Q 131.21 37.58 126.38 41.22
  Q 126.09 41.44 126.30 41.73
  L 133.77 52.31
  A 0.44 0.43 72.2 0 1 133.42 53.00
  L 127.25 53.00
  Q 126.72 53.00 126.43 52.56
  L 119.40 42.07
  A 0.36 0.35 -62.0 0 0 118.75 42.27
  Z
  M 118.64 30.81
  L 118.82 38.25
  A 0.21 0.21 0.0 0 0 119.04 38.45
  L 119.22 38.45
  A 5.91 3.77 -1.4 0 0 125.03 34.53
  L 125.03 34.21
  A 5.91 3.77 -1.4 0 0 119.02 30.59
  L 118.84 30.59
  A 0.21 0.21 0.0 0 0 118.64 30.81
  Z"
/>
<path fill="#09949f" d="
  M 201.67 31.75
  L 193.58 31.75
  A 0.33 0.33 0.0 0 1 193.25 31.42
  L 193.25 26.33
  A 0.33 0.33 0.0 0 1 193.58 26.00
  L 216.67 26.00
  A 0.33 0.33 0.0 0 1 217.00 26.33
  L 217.00 31.42
  A 0.33 0.33 0.0 0 1 216.67 31.75
  L 208.83 31.74
  A 0.33 0.33 0.0 0 0 208.50 32.07
  L 208.50 52.67
  A 0.33 0.33 0.0 0 1 208.17 53.00
  L 202.33 53.00
  A 0.33 0.33 0.0 0 1 202.00 52.67
  L 202.00 32.08
  A 0.33 0.33 0.0 0 0 201.67 31.75
  Z"
/>
<path fill="#09949f" d="
  M 229.73 31.84
  L 229.76 36.17
  A 0.34 0.34 0.0 0 0 230.10 36.51
  L 238.21 36.49
  A 0.34 0.34 0.0 0 1 238.55 36.84
  L 238.48 41.67
  A 0.34 0.34 0.0 0 1 238.14 42.00
  L 230.09 42.00
  A 0.34 0.34 0.0 0 0 229.75 42.34
  L 229.75 47.16
  A 0.34 0.34 0.0 0 0 230.09 47.50
  L 239.92 47.50
  A 0.34 0.34 0.0 0 1 240.26 47.84
  L 240.24 52.66
  A 0.34 0.34 0.0 0 1 239.90 53.00
  L 223.84 53.00
  A 0.34 0.34 0.0 0 1 223.50 52.66
  L 223.50 26.34
  A 0.34 0.34 0.0 0 1 223.84 26.00
  L 239.66 26.00
  A 0.34 0.34 0.0 0 1 240.00 26.34
  L 240.00 31.16
  A 0.34 0.34 0.0 0 1 239.66 31.50
  L 230.07 31.50
  A 0.34 0.34 0.0 0 0 229.73 31.84
  Z"
/>
<path fill="#09949f" d="
  M 300.00 26.04
  L 300.00 52.85
  L 294.40 52.94
  Q 293.75 52.95 293.75 52.30
  L 293.75 42.25
  Q 293.75 41.75 293.25 41.75
  L 283.75 41.75
  Q 283.25 41.75 283.25 42.25
  L 283.25 52.25
  Q 283.25 53.00 282.50 53.00
  L 277.50 53.00
  Q 276.75 53.00 276.75 52.25
  L 276.75 26.75
  Q 276.75 26.00 277.50 26.00
  L 282.62 26.00
  Q 283.25 26.00 283.25 26.63
  L 283.25 35.50
  Q 283.25 36.00 283.75 36.00
  L 293.25 36.00
  Q 293.75 36.00 293.75 35.50
  L 293.75 26.50
  Q 293.75 26.02 294.23 26.02
  L 300.00 26.04
  Z"
/>
</svg>
